HIERARCHY
ROOT Hips
{
  OFFSET 43.0842 91.1655 101.099
  CHANNELS 6 Xposition Yposition Zposition Zrotation Xrotation Yrotation
  JOINT LeftUpLeg
  {
    OFFSET 8.64259 1.95398 -2.38835
    CHANNELS 3 Zrotation Xrotation Yrotation
    JOINT LeftLeg
    {
      OFFSET 43.7702 0 0
      CHANNELS 3 Zrotation Xrotation Yrotation
      JOINT LeftFoot
      {
        OFFSET 40.6238 0 0
        CHANNELS 3 Zrotation Xrotation Yrotation
        JOINT LeftToeBase
        {
          OFFSET 12.7242 0 0
          CHANNELS 3 Zrotation Xrotation Yrotation
          End Site
          {
            OFFSET 0 0 0
          }
        }
      }
    }
  }
  JOINT RightUpLeg
  {
    OFFSET -8.2249 1.95398 -2.59336
    CHANNELS 3 Zrotation Xrotation Yrotation
    JOINT RightLeg
    {
      OFFSET 43.5653 0 0
      CHANNELS 3 Zrotation Xrotation Yrotation
      JOINT RightFoot
      {
        OFFSET 40.6238 0 0
        CHANNELS 3 Zrotation Xrotation Yrotation
        JOINT RightToeBase
        {
          OFFSET 12.7242 0 0
          CHANNELS 3 Zrotation Xrotation Yrotation
          End Site
          {
            OFFSET 0 0 0
          }
        }
      }
    }
  }
  JOINT Spine
  {
    OFFSET 0.165834 0.87714 6.61349
    CHANNELS 3 Zrotation Xrotation Yrotation
    JOINT Spine1
    {
      OFFSET 7.38963 1.71661e-005 0
      CHANNELS 3 Zrotation Xrotation Yrotation
      JOINT Spine2
      {
        OFFSET 11.9445 1.14441e-005 0
        CHANNELS 3 Zrotation Xrotation Yrotation
        JOINT Spine3
        {
          OFFSET 14.7254 4.19617e-005 0
          CHANNELS 3 Zrotation Xrotation Yrotation
          JOINT Spine4
          {
            OFFSET 10.9679 0 0
            CHANNELS 3 Zrotation Xrotation Yrotation
            JOINT RightShoulder
            {
              OFFSET 2.46616 -1.6653 3.69651
              CHANNELS 3 Zrotation Xrotation Yrotation
              JOINT RightArm
              {
                OFFSET 13.0012 0 0
                CHANNELS 3 Zrotation Xrotation Yrotation
                JOINT RightForeArm
                {
                  OFFSET 28.7848 1.52588e-005 0
                  CHANNELS 3 Zrotation Xrotation Yrotation
                  JOINT RightHand
                  {
                    OFFSET 26.5688 1.52588e-005 0
                    CHANNELS 3 Zrotation Xrotation Yrotation
                    End Site
                    {
                      OFFSET 0 0 0
                    }
                  }
                }
              }
            }
            JOINT LeftShoulder
            {
              OFFSET 2.38034 -1.29275 -3.7523
              CHANNELS 3 Zrotation Xrotation Yrotation
              JOINT LeftArm
              {
                OFFSET 16.3182 6.10351e-005 0
                CHANNELS 3 Zrotation Xrotation Yrotation
                JOINT LeftForeArm
                {
                  OFFSET 27.0901 0 0
                  CHANNELS 3 Zrotation Xrotation Yrotation
                  JOINT LeftHand
                  {
                    OFFSET 24.5451 1.52588e-005 0
                    CHANNELS 3 Zrotation Xrotation Yrotation
                    End Site
                    {
                      OFFSET 0 0 0
                    }
                  }
                }
              }
            }
            JOINT Neck
            {
              OFFSET 5.0226 -0.0266342 0
              CHANNELS 3 Zrotation Xrotation Yrotation
              JOINT Head
              {
                OFFSET 6.69364 2.86102e-005 0
                CHANNELS 3 Zrotation Xrotation Yrotation
                End Site
                {
                  OFFSET 0 0 0
                }
              }
            }
          }
        }
      }
    }
  }
}
MOTION
Frames:	15
Frame Time:	0.0333333
132.177 95.5561 20.9368 -94.7275 -4.39391 -108.934 -157.435 13.3082 87.7875 -44.8155 14.4036 -14.3635 43.9006 -16.6552 -18.0452 29.5209 -0.533806 2.31413 168.201 24.985 79.6217 -47.2058 -5.59209 2.65409 59.0362 4.06597 -1.2217 36.5894 -3.21372 -4.03223 -0.513678 7.90731 -90.1885 11.0574 -1.10993 -0.269047 -0.613061 -1.12067 -0.219943 -23.151 -0.977768 -0.590223 -3.13834 -0.977758 -0.590211 97.0237 -38.9283 -91.2666 -3.5913 -27.701 -53.9751 -5.526 0.0262632 -112.478 -18.7016 -4.11829 6.69705 -100.03 -54.1428 65.4329 37.5227 -35.5745 9.45021 0.00583992 -5.74646 -63.5847 37.3547 4.57404 -2.38119 -17.17 15.4055 22.8243 0.700303 16.3725 14.7596 
133.045 95.2635 19.8576 -93.9385 -5.21037 -104.633 -163.809 8.98902 86.1361 -35.2412 9.7693 -13.3722 51.3265 -11.8371 -8.70327 35.6355 6.34229 4.75147 169.115 30.6174 81.2417 -55.9148 -6.05942 1.27843 52.5512 5.30387 11.0617 36.4086 -3.4306 -2.8601 -0.707785 7.95043 -90.3381 10.9692 -1.56553 -0.523591 -0.700857 -1.58703 -0.454176 -23.2411 -1.3358 -0.969961 -3.22839 -1.33578 -0.969954 96.9623 -39.7801 -91.2645 -5.87325 -28.2459 -52.9117 -6.02574 2.33778 -115.925 -15.3563 -3.01084 6.02491 -99.5906 -54.1088 66.0337 45.3944 -53.9689 17.1283 -3.04748 10.9656 -68.9534 39.5893 4.89072 -2.12943 -14.7925 16.2185 21.6852 1.32166 16.7273 14.2291 
134.073 94.3725 18.591 -92.561 -4.88399 -99.854 -166.873 8.02226 86.3686 -30.8048 1.4642 -12.2561 59.2594 -4.03262 2.60442 36.287 8.46858 1.96822 173.601 34.2516 81.9795 -60.4341 -10.9617 -1.76772 52.9284 4.17095 12.2771 40.0205 -5.25708 -3.92391 -0.604758 7.94856 -90.455 10.9725 -1.41456 -0.770102 -0.697819 -1.44709 -0.70709 -23.2354 -1.11773 -1.15965 -3.22279 -1.11771 -1.15965 96.9577 -39.9751 -91.2465 -5.59368 -29.4601 -52.4894 -7.31095 4.99257 -118.731 -13.469 -2.40521 6.03145 -98.5146 -53.4316 67.3131 56.8953 -67.3891 27.7961 -4.61428 24.5217 -73.0516 40.8156 5.04765 -2.1287 -11.8499 17.244 18.1851 0.94068 17.2575 15.3268 
134.825 93.4619 16.7703 -92.2331 -6.66773 -95.1924 -168.26 10.1556 89.9428 -29.2228 2.03696 -11.2839 62.9546 -1.14407 13.2644 34.234 6.38832 0.980226 176.301 33.4347 81.506 -58.9868 -10.7541 -3.54552 55.6238 2.72562 6.6442 40.4798 -4.76257 -7.09166 -0.618594 7.85627 -90.6467 11.1523 -1.53157 -1.13774 -0.518232 -1.58015 -1.06924 -23.0537 -1.11889 -1.54542 -3.04103 -1.11884 -1.54541 97.0037 -40.5204 -91.1 -2.40787 -30.2035 -51.85 -7.9741 5.1271 -120.395 -12.0345 -1.94769 5.79839 -99.7624 -54.7827 66.0258 55.3676 -72.3299 23.0917 -3.5576 25.1622 -74.3262 39.1075 4.74901 -2.6555 -9.78398 18.0888 13.5273 -2.21176 17.6372 18.2064 
135.475 92.2314 14.7983 -92.4764 -11.1964 -92.337 -168.132 13.0753 92.6873 -31.7689 7.92946 -9.46354 64.7429 2.77615 17.1001 33.5719 5.18408 1.70638 176.239 31.537 78.1872 -56.3196 -7.25789 -4.38031 57.8779 1.90649 1.34238 36.6432 -1.99252 -8.41059 -0.718878 7.77877 -90.6205 11.3091 -1.7195 -1.06404 -0.361016 -1.7647 -0.987328 -22.8988 -1.32026 -1.53163 -2.88614 -1.32026 -1.53164 97.2036 -43.5169 -90.3888 -1.60859 -30.7235 -51.4286 -8.04476 4.95594 -121.878 -12.4099 -2.06741 5.79662 -104.478 -58.062 60.8169 39.7729 -72.7594 0.358859 -0.612623 21.8294 -72.9347 37.4887 4.50713 -2.97826 -10.3849 17.543 9.98966 -3.38356 17.1981 19.7372 
136.005 91.2092 13.1671 -92.7584 -16.0043 -92.182 -166.746 16.1895 93.6745 -34.5748 16.0567 -9.05594 64.2023 4.1808 20.3848 33.7809 5.28394 2.02663 174.825 29.3644 72.8618 -53.2821 -8.28346 -4.79129 56.7448 5.3824 -5.36825 31.8288 1.49704 -9.35148 -0.775637 7.79841 -90.2968 11.2744 -1.68163 -0.42469 -0.395491 -1.69872 -0.350251 -22.937 -1.4763 -0.910558 -2.92436 -1.47627 -0.910548 96.7744 -45.7557 -90.8464 1.54176 -30.2237 -49.7966 -6.54892 3.33866 -123.413 -12.0057 -1.91553 6.71375 -107.331 -59.4291 57.6239 22.1016 -65.9266 -21.9446 4.05711 14.2196 -70.1082 35.2546 4.14163 -3.88676 -10.1853 16.7235 7.17106 -2.98205 16.5638 19.3192 
136.25 90.2194 11.5247 -92.3582 -17.2537 -90.761 -164.186 20.3209 96.1905 -38.7908 19.169 -9.21217 64.1044 5.3369 20.4423 34.3779 6.03262 2.05475 174.948 26.5759 70.9531 -48.6272 -7.66393 -5.5475 55.6005 6.81128 -4.54312 27.4993 4.25646 -8.86393 -0.426088 7.77299 -90.1427 11.327 -0.914364 -0.192371 -0.343667 -0.921945 -0.151934 -22.8808 -0.814279 -0.458297 -2.86815 -0.814257 -0.45829 96.3642 -46.9956 -91.3637 4.18916 -30.5254 -48.9372 -6.27484 1.66437 -123.53 -13.1303 -2.28725 6.75076 -110.063 -60.5977 54.6062 16.785 -58.6658 -30.0957 6.89643 8.01516 -66.5007 32.0407 3.6311 -5.59386 -10.0509 15.803 6.46461 -2.95356 15.6649 18.1127 
136.236 89.7916 10.0703 -92.5852 -16.713 -89.4475 -163.631 21.8457 98.2651 -40.3954 22.6356 -8.62389 63.6857 5.15603 22.4863 34.8562 5.90467 3.52264 175.264 23.0652 71.0459 -43.4535 -6.76615 -6.66707 52.0162 6.6288 6.57732 29.1781 2.87489 -8.23133 -0.105789 7.78571 -90.0771 11.302 -0.246428 -0.129371 -0.368894 -0.251873 -0.11841 -22.9042 -0.196147 -0.197452 -2.8915 -0.196119 -0.197448 95.3397 -46.8676 -93.0296 4.27965 -30.7021 -50.5888 -6.55261 1.48891 -122.952 -14.4964 -2.73318 7.66356 -111.949 -61.4673 52.6068 16.4529 -55.9452 -30.0017 8.49604 6.86863 -66.3713 31.5568 3.48581 -6.80373 -10.2623 16.1299 8.72531 -2.69183 15.9036 15.5116 
136.02 88.9997 8.5902 -92.4246 -15.9052 -88.9544 -164.244 23.7802 99.0564 -43.5958 25.3898 -7.36617 63.7843 5.42537 23.7758 34.2397 4.77334 4.13672 174.595 20.8052 70.9787 -40.6345 -10.2139 -6.71214 51.6589 5.20484 11.706 39.6598 -3.75436 -9.08035 0.116214 7.70449 -90.0115 11.4655 0.225969 -0.0456684 -0.205465 0.223712 -0.0555765 -22.7408 0.229237 0.0243468 -2.72818 0.229231 0.0243439 94.8058 -47.6269 -93.7701 2.09187 -30.7919 -53.7243 -7.23457 0.428735 -121.013 -15.3744 -3.03209 7.82572 -116.158 -63.116 48.1518 18.8178 -56.4729 -26.6897 8.8947 8.34838 -68.2487 32.3188 3.60846 -6.15093 -10.8948 17.1264 11.4892 -2.48226 16.8376 13.3784 
135.581 88.365 6.93386 -92.7404 -15.2651 -88.8451 -164.86 24.6989 99.979 -45.8271 26.7669 -6.24775 63.4075 4.91597 24.4914 33.9907 4.40758 4.19956 173.141 18.9561 71.5652 -37.7957 -7.06428 -5.65969 55.7236 2.16603 12.827 43.9473 -7.01006 -6.52445 0.274175 7.69493 -89.8508 11.4833 0.615249 0.23455 -0.187518 0.624971 0.207238 -22.7234 0.516312 0.408614 -2.71072 0.516318 0.408614 93.6559 -49.9384 -95.2111 -0.232709 -31.2079 -55.3904 -7.55753 0.00555188 -119.452 -15.7519 -3.16288 7.76831 -116.334 -63.3364 48.0414 18.8658 -57.1552 -24.4649 6.93348 8.99306 -69.6695 31.9581 3.63543 -5.47731 -10.2688 17.6277 11.5364 -2.92418 17.2074 12.6027 
135.325 88.2854 5.32259 -92.9594 -14.269 -88.6904 -164.956 24.9159 100.975 -46.2345 26.9282 -5.5044 63.0558 4.83803 23.755 33.1588 3.31351 4.15863 171.952 18.1568 72.8836 -35.642 -2.36952 -4.41251 57.5849 1.61357 12.8616 45.6982 -8.31229 -4.96449 0.416621 7.67887 -89.7539 11.5145 0.943982 0.393738 -0.156173 0.96041 0.351793 -22.6929 0.782017 0.659245 -2.68023 0.782018 0.659243 93.0613 -50.2622 -96.0712 -1.40558 -31.9587 -57.0961 -5.39525 -0.0392384 -118.064 -14.2951 -2.66758 6.67146 -118.147 -63.6595 46.0025 22.1496 -57.4301 -19.9901 7.31277 9.6004 -70.36 31.8565 3.68435 -4.81364 -10.5678 18.2234 11.2656 -2.50635 17.8973 12.9248 
135.047 88.2071 3.89088 -93.4041 -13.1659 -88.6564 -164.776 24.9394 102.181 -46.6888 27.5478 -5.23799 63.2263 5.27192 22.9779 32.2119 1.21983 5.51183 171.108 17.303 74.1199 -34.275 -0.910511 -3.33202 60.3712 0.501418 8.96097 45.9202 -8.99067 -1.56897 0.514544 7.677 -89.7196 11.5178 1.15484 0.440381 -0.152656 1.17314 0.389106 -22.6903 0.969098 0.767118 -2.67768 0.969117 0.767118 92.8814 -50.6084 -96.2859 -1.91148 -32.477 -57.8549 -5.45234 -0.704397 -116.572 -15.0988 -2.93296 6.73036 -120.167 -64.2564 43.8721 25.6076 -58.0038 -15.3883 5.58287 9.091 -70.139 31.1261 3.44677 -6.84426 -11.1713 18.7313 12.0576 -2.27725 18.4603 12.5588 
134.748 88.2349 2.66599 -93.7945 -12.8034 -88.5025 -164.638 24.718 103.299 -46.1368 28.1046 -5.08467 62.7901 4.38457 22.7256 32.8122 1.55475 6.35186 171.039 16.0769 75.4194 -33.3125 1.20082 -3.17436 63.8131 -1.92948 8.65108 43.6231 -7.68852 -1.94758 0.498265 7.66778 -89.7026 11.5361 1.13042 0.47652 -0.134446 1.15031 0.426288 -22.6718 0.93497 0.794244 -2.65911 0.93495 0.794241 93.0708 -50.7094 -95.9785 -2.99675 -34.2009 -58.4437 -7.09205 -0.101393 -116.159 -14.2188 -2.64311 7.22313 -120.583 -64.4081 43.4514 28.3278 -57.9811 -11.1943 4.46968 8.27354 -70.0637 30.3078 3.33954 -7.37526 -11.6302 19.4205 12.1567 -2.33694 19.1931 12.2737 
134.608 88.2603 1.60406 -93.9421 -13.4149 -88.6362 -164.779 24.7301 103.848 -45.5919 27.6101 -4.7952 62.4013 3.98657 21.7679 32.7807 1.86686 5.75887 171.039 15.6442 76.051 -33.6207 1.66009 -3.2223 64.7439 -2.00949 7.56425 45.3176 -8.82169 -0.673891 0.368082 7.65978 -89.6609 11.552 0.890924 0.584263 -0.118793 0.915778 0.544474 -22.6545 0.674176 0.825017 -2.64181 0.67416 0.825007 92.9502 -51.0968 -96.0951 -2.90101 -34.5464 -57.6769 -6.15578 -0.715468 -115.864 -13.7985 -2.5057 6.87744 -120.257 -64.3625 43.8166 30.4248 -58.5043 -7.57035 3.79902 8.53853 -70.37 30.2043 3.35021 -7.12106 -11.5457 20.0621 11.6823 -2.83711 19.8001 12.6602 
134.405 88.3763 0.846872 -94.5132 -13.24 -89.254 -164.361 23.6569 104.132 -44.3855 27.0485 -4.96067 62.2392 3.78801 20.7788 32.7471 2.03935 5.38976 170.782 15.8489 75.9304 -34.8707 1.61229 -3.22672 65.1113 -2.2289 7.49084 45.8016 -9.1273 -0.332461 0.333078 7.7313 -89.6297 11.4087 0.835577 0.653052 -0.262131 0.863543 0.615626 -22.7972 0.600692 0.873982 -2.78458 0.600699 0.873967 92.9924 -50.8509 -96.0733 -3.26581 -35.058 -57.4479 -6.51902 -0.575488 -116.01 -15.6875 -3.13215 7.28988 -120.741 -64.4895 43.305 31.9087 -59.7545 -4.9741 3.29083 9.2519 -70.4594 30.2049 3.3457 -7.18792 -11.6884 20.4194 11.7662 -2.93498 20.1656 13.1188 
